G04 #@! TF.GenerationSoftware,KiCad,Pcbnew,(5.1.10)-1*
G04 #@! TF.CreationDate,2021-09-27T22:25:22-06:00*
G04 #@! TF.ProjectId,BlueMicro833_vddh,426c7565-4d69-4637-926f-3833335f7664,rev?*
G04 #@! TF.SameCoordinates,Original*
G04 #@! TF.FileFunction,Copper,L2,Bot*
G04 #@! TF.FilePolarity,Positive*
%FSLAX46Y46*%
G04 Gerber Fmt 4.6, Leading zero omitted, Abs format (unit mm)*
G04 Created by KiCad (PCBNEW (5.1.10)-1) date 2021-09-27 22:25:22*
%MOMM*%
%LPD*%
G01*
G04 APERTURE LIST*
G04 #@! TA.AperFunction,ComponentPad*
%ADD10C,1.270000*%
G04 #@! TD*
G04 #@! TA.AperFunction,ComponentPad*
%ADD11R,1.250000X1.250000*%
G04 #@! TD*
G04 #@! TA.AperFunction,SMDPad,CuDef*
%ADD12R,0.600000X1.450000*%
G04 #@! TD*
G04 #@! TA.AperFunction,SMDPad,CuDef*
%ADD13R,0.300000X1.450000*%
G04 #@! TD*
G04 #@! TA.AperFunction,ComponentPad*
%ADD14O,1.000000X2.100000*%
G04 #@! TD*
G04 #@! TA.AperFunction,ComponentPad*
%ADD15O,1.000000X1.600000*%
G04 #@! TD*
G04 #@! TA.AperFunction,ComponentPad*
%ADD16R,1.000000X0.650000*%
G04 #@! TD*
G04 #@! TA.AperFunction,SMDPad,CuDef*
%ADD17R,1.000000X0.650000*%
G04 #@! TD*
G04 #@! TA.AperFunction,SMDPad,CuDef*
%ADD18R,0.650000X1.000000*%
G04 #@! TD*
G04 #@! TA.AperFunction,ComponentPad*
%ADD19R,0.650000X1.000000*%
G04 #@! TD*
G04 #@! TA.AperFunction,SMDPad,CuDef*
%ADD20C,1.000000*%
G04 #@! TD*
G04 #@! TA.AperFunction,ComponentPad*
%ADD21C,0.100000*%
G04 #@! TD*
G04 #@! TA.AperFunction,ComponentPad*
%ADD22R,1.700000X1.700000*%
G04 #@! TD*
G04 #@! TA.AperFunction,ComponentPad*
%ADD23O,1.700000X1.700000*%
G04 #@! TD*
G04 #@! TA.AperFunction,ViaPad*
%ADD24C,0.600000*%
G04 #@! TD*
G04 #@! TA.AperFunction,Conductor*
%ADD25C,0.200000*%
G04 #@! TD*
G04 APERTURE END LIST*
D10*
X111421533Y-112352775D03*
X111421533Y-114892775D03*
X111421533Y-117432775D03*
X111421533Y-119972775D03*
X111421533Y-122512775D03*
X111421533Y-125052775D03*
X111421533Y-127592775D03*
X111421533Y-130132775D03*
X111421533Y-132672775D03*
X111421533Y-135212775D03*
X111421533Y-137752775D03*
X111421533Y-140292775D03*
X96181533Y-140292775D03*
X96181533Y-137752775D03*
X96181533Y-135212775D03*
X96181533Y-132672775D03*
X96181533Y-130132775D03*
X96181533Y-127592775D03*
X96181533Y-125052775D03*
X96181533Y-122512775D03*
X96181533Y-119972775D03*
X96181533Y-117432775D03*
X96181533Y-114892775D03*
D11*
X96181533Y-112352775D03*
D12*
X107051533Y-117032775D03*
X106251533Y-117032775D03*
X101351533Y-117032775D03*
X100551533Y-117032775D03*
X100551533Y-117032775D03*
X101351533Y-117032775D03*
X106251533Y-117032775D03*
X107051533Y-117032775D03*
D13*
X102051533Y-117032775D03*
X102551533Y-117032775D03*
X103051533Y-117032775D03*
X104051533Y-117032775D03*
X104551533Y-117032775D03*
X105051533Y-117032775D03*
X105551533Y-117032775D03*
X103551533Y-117032775D03*
D14*
X108121533Y-116117775D03*
X99481533Y-116117775D03*
D15*
X99481533Y-111937775D03*
X108121533Y-111937775D03*
D16*
X107842533Y-128354775D03*
D17*
X97682533Y-126322775D03*
X97682533Y-127592775D03*
X97682533Y-128862775D03*
X97682533Y-130132775D03*
X97682533Y-131402775D03*
X97682533Y-132672775D03*
X97682533Y-133942775D03*
X97682533Y-135212775D03*
X97682533Y-136482775D03*
X97682533Y-137752775D03*
X109920533Y-130132775D03*
X109920533Y-137752775D03*
X109920533Y-131402775D03*
X109920533Y-136482775D03*
X109920533Y-135212775D03*
X109920533Y-133942775D03*
X109920533Y-128862775D03*
X109920533Y-132672775D03*
X109920533Y-127592775D03*
X109920533Y-126322775D03*
D18*
X106951533Y-124103775D03*
X99331533Y-124103775D03*
X105681533Y-124103775D03*
X100601533Y-124103775D03*
X101871533Y-124103775D03*
X103141533Y-124103775D03*
X108221533Y-124103775D03*
X104411533Y-124103775D03*
D16*
X107842533Y-129624775D03*
X107842533Y-130894775D03*
X107842533Y-132164775D03*
X107842533Y-133434775D03*
X107842533Y-134704775D03*
X107842533Y-135974775D03*
X107842533Y-137244775D03*
D19*
X101238533Y-125814775D03*
X99968533Y-125814775D03*
X105048533Y-125814775D03*
X102508533Y-125814775D03*
X106318533Y-125814775D03*
X107588533Y-125814775D03*
X103778533Y-125814775D03*
D20*
X110049933Y-110523975D03*
G04 #@! TA.AperFunction,ComponentPad*
D21*
G36*
X112945533Y-134720592D02*
G01*
X112167716Y-133942775D01*
X112945533Y-133164958D01*
X113723350Y-133942775D01*
X112945533Y-134720592D01*
G37*
G04 #@! TD.AperFunction*
G04 #@! TA.AperFunction,ComponentPad*
G36*
X112945533Y-137260592D02*
G01*
X112167716Y-136482775D01*
X112945533Y-135704958D01*
X113723350Y-136482775D01*
X112945533Y-137260592D01*
G37*
G04 #@! TD.AperFunction*
G04 #@! TA.AperFunction,ComponentPad*
G36*
X112945533Y-129640592D02*
G01*
X112167716Y-128862775D01*
X112945533Y-128084958D01*
X113723350Y-128862775D01*
X112945533Y-129640592D01*
G37*
G04 #@! TD.AperFunction*
G04 #@! TA.AperFunction,ComponentPad*
G36*
X112945533Y-132180592D02*
G01*
X112167716Y-131402775D01*
X112945533Y-130624958D01*
X113723350Y-131402775D01*
X112945533Y-132180592D01*
G37*
G04 #@! TD.AperFunction*
D22*
X97832533Y-112352775D03*
D23*
X97832533Y-114892775D03*
D24*
X99102533Y-132672775D03*
X102023533Y-132037775D03*
X102023533Y-128481775D03*
X109743368Y-123578871D03*
X97451533Y-119083783D03*
X106595533Y-112479775D03*
X101490033Y-112479775D03*
X105681133Y-121699975D03*
X98360533Y-122258775D03*
X110143659Y-125563928D03*
X94995261Y-110785503D03*
X98682535Y-128735775D03*
X105452533Y-127465775D03*
X106140797Y-132693776D03*
X102404533Y-130894775D03*
X101677523Y-119337775D03*
X100499533Y-122258775D03*
X103668321Y-115340385D03*
X104868333Y-115299185D03*
X104631709Y-131761480D03*
X105960533Y-130259775D03*
X108170333Y-140241975D03*
X98467533Y-138727565D03*
X102411236Y-113903629D03*
X105449352Y-113343552D03*
X108671263Y-125360061D03*
X102658535Y-120861775D03*
D25*
X97682533Y-132672775D02*
X99102533Y-132672775D01*
X99737533Y-132037775D02*
X99102533Y-132672775D01*
X102023533Y-132037775D02*
X99737533Y-132037775D01*
X102023533Y-131613511D02*
X102023533Y-132037775D01*
X101804532Y-131394510D02*
X102023533Y-131613511D01*
X101804532Y-129125040D02*
X101804532Y-131394510D01*
X102023533Y-128906039D02*
X101804532Y-129125040D01*
X102023533Y-128481775D02*
X102023533Y-128906039D01*
X110167632Y-123578871D02*
X109743368Y-123578871D01*
X111331431Y-123578871D02*
X110167632Y-123578871D01*
X112945533Y-130196275D02*
X111802533Y-129053275D01*
X111802533Y-129053275D02*
X111802533Y-128595577D01*
X111802533Y-128595577D02*
X112356534Y-128041576D01*
X112356534Y-128041576D02*
X112356534Y-124603974D01*
X112945533Y-131402775D02*
X112945533Y-130196275D01*
X112356534Y-124603974D02*
X111331431Y-123578871D01*
X96181533Y-114892775D02*
X97451533Y-116162775D01*
X97451533Y-116162775D02*
X97451533Y-118659519D01*
X97875797Y-119083783D02*
X97451533Y-119083783D01*
X97451533Y-118659519D02*
X97451533Y-119083783D01*
X111421533Y-117432775D02*
X109897533Y-115908775D01*
X109897533Y-115908775D02*
X109897533Y-111590775D01*
X112138426Y-131402775D02*
X112945533Y-131402775D01*
X111285535Y-131402775D02*
X112138426Y-131402775D01*
X110660534Y-132027776D02*
X111285535Y-131402775D01*
X109200530Y-132027776D02*
X110660534Y-132027776D01*
X103293533Y-133307775D02*
X106604531Y-133307775D01*
X102023533Y-132037775D02*
X103293533Y-133307775D01*
X106604531Y-133307775D02*
X107112531Y-132799775D01*
X107112531Y-132799775D02*
X108754533Y-132799775D01*
X108754533Y-132799775D02*
X108754533Y-132473773D01*
X108754533Y-132473773D02*
X109200530Y-132027776D01*
X95546534Y-114257776D02*
X96181533Y-114892775D01*
X95165533Y-113876775D02*
X95546534Y-114257776D01*
X95165533Y-111463775D02*
X95165533Y-113876775D01*
X96181533Y-110574775D02*
X96054533Y-110574775D01*
X96054533Y-110574775D02*
X95165533Y-111463775D01*
X108881533Y-110574775D02*
X96054533Y-110574775D01*
X109897533Y-111590775D02*
X108881533Y-110574775D01*
X109443369Y-125505941D02*
X109443369Y-123878870D01*
X107588533Y-125814775D02*
X107588533Y-125989775D01*
X107588533Y-125989775D02*
X108113533Y-126514775D01*
X109443369Y-123878870D02*
X109743368Y-123578871D01*
X108113533Y-126514775D02*
X108434535Y-126514775D01*
X108434535Y-126514775D02*
X109443369Y-125505941D01*
X107321523Y-113205765D02*
X106595533Y-112479775D01*
X107321523Y-116452785D02*
X107321523Y-113205765D01*
X107051533Y-116722775D02*
X107321523Y-116452785D01*
X107051533Y-117032775D02*
X107051533Y-116722775D01*
X100281543Y-113688265D02*
X101490033Y-112479775D01*
X100281543Y-115882787D02*
X100281543Y-113688265D01*
X100551533Y-116152777D02*
X100281543Y-115882787D01*
X100551533Y-117032775D02*
X100551533Y-116152777D01*
X101790032Y-112179776D02*
X106295534Y-112179776D01*
X106295534Y-112179776D02*
X106595533Y-112479775D01*
X101490033Y-112479775D02*
X101790032Y-112179776D01*
X105681533Y-121700375D02*
X105681133Y-121699975D01*
X105681533Y-124103775D02*
X105681533Y-121700375D01*
X105731933Y-121699975D02*
X105681133Y-121699975D01*
X107459133Y-119972775D02*
X105731933Y-121699975D01*
X111421533Y-119972775D02*
X107459133Y-119972775D01*
X109897533Y-110676375D02*
X110049933Y-110523975D01*
X109897533Y-111590775D02*
X109897533Y-110676375D01*
X99331533Y-123229775D02*
X98360533Y-122258775D01*
X99331533Y-124103775D02*
X99331533Y-123229775D01*
X105036534Y-124903776D02*
X106246534Y-124903776D01*
X104411533Y-124103775D02*
X104411533Y-124278775D01*
X104411533Y-124278775D02*
X105036534Y-124903776D01*
X106246534Y-124903776D02*
X106306534Y-124843776D01*
X106806269Y-123020775D02*
X107230533Y-123020775D01*
X106306534Y-123383772D02*
X106669531Y-123020775D01*
X106306534Y-124843776D02*
X106306534Y-123383772D01*
X107530532Y-122720776D02*
X107230533Y-123020775D01*
X108914834Y-121336474D02*
X107530532Y-122720776D01*
X111986158Y-121336474D02*
X108914834Y-121336474D01*
X112945533Y-122295849D02*
X111986158Y-121336474D01*
X106669531Y-123020775D02*
X106806269Y-123020775D01*
X112945533Y-128862775D02*
X112945533Y-122295849D01*
X111294533Y-136482775D02*
X112945533Y-136482775D01*
X108881533Y-134281775D02*
X108881533Y-136808777D01*
X108881533Y-136808777D02*
X109180532Y-137107776D01*
X109220533Y-133942775D02*
X108881533Y-134281775D01*
X109180532Y-137107776D02*
X110669532Y-137107776D01*
X110669532Y-137107776D02*
X111294533Y-136482775D01*
X109920533Y-133942775D02*
X109220533Y-133942775D01*
X109920533Y-125787054D02*
X110143659Y-125563928D01*
X109920533Y-126322775D02*
X109920533Y-125787054D01*
X94695262Y-111085502D02*
X94995261Y-110785503D01*
X94695262Y-115946504D02*
X94695262Y-111085502D01*
X96181533Y-117432775D02*
X94695262Y-115946504D01*
X96181533Y-130132775D02*
X97682533Y-130132775D01*
X97451533Y-128862775D02*
X97682533Y-128862775D01*
X96181533Y-127592775D02*
X97451533Y-128862775D01*
X94657533Y-124036775D02*
X96181533Y-122512775D01*
X94657533Y-125433775D02*
X94657533Y-124036775D01*
X97682533Y-126322775D02*
X95546533Y-126322775D01*
X95546533Y-126322775D02*
X94657533Y-125433775D01*
X97682533Y-127592775D02*
X98682535Y-128592777D01*
X98682535Y-128592777D02*
X98682535Y-128735775D01*
X109920533Y-137752775D02*
X111421533Y-137752775D01*
X111365533Y-135212775D02*
X111421533Y-135212775D01*
X110095533Y-136482775D02*
X111365533Y-135212775D01*
X109920533Y-136482775D02*
X110095533Y-136482775D01*
X112138426Y-133942775D02*
X112945533Y-133942775D01*
X111365533Y-133942775D02*
X112138426Y-133942775D01*
X109920533Y-135212775D02*
X110095533Y-135212775D01*
X110095533Y-135212775D02*
X111365533Y-133942775D01*
X105579533Y-127592775D02*
X105452533Y-127465775D01*
X109920533Y-127592775D02*
X105579533Y-127592775D01*
X106140797Y-132693776D02*
X104203534Y-132693776D01*
X104203534Y-132693776D02*
X102704532Y-131194774D01*
X102704532Y-131194774D02*
X102404533Y-130894775D01*
X101351533Y-117507775D02*
X101351533Y-116582775D01*
X101351533Y-117507775D02*
X101351533Y-119011785D01*
X101351533Y-119011785D02*
X101377524Y-119037776D01*
X101377524Y-119037776D02*
X101677523Y-119337775D01*
X106153963Y-115200343D02*
X106066532Y-115287774D01*
X101811234Y-115613076D02*
X101811234Y-113615627D01*
X105737354Y-112743550D02*
X106153963Y-113160159D01*
X102683311Y-112743550D02*
X105737354Y-112743550D01*
X106066532Y-116847774D02*
X106251533Y-117032775D01*
X101811234Y-113615627D02*
X102683311Y-112743550D01*
X106066532Y-115287774D02*
X106066532Y-116847774D01*
X106153963Y-113160159D02*
X106153963Y-115200343D01*
X101351533Y-116072777D02*
X101811234Y-115613076D01*
X101351533Y-117032775D02*
X101351533Y-116072777D01*
X100601533Y-122360775D02*
X100499533Y-122258775D01*
X100601533Y-124103775D02*
X100601533Y-122360775D01*
X103551533Y-118432775D02*
X103551533Y-117507775D01*
X103551533Y-122254775D02*
X103551533Y-118432775D01*
X102516532Y-123289776D02*
X103551533Y-122254775D01*
X102747532Y-125014774D02*
X102516532Y-124783774D01*
X103073534Y-125014774D02*
X102747532Y-125014774D01*
X102516532Y-124783774D02*
X102516532Y-123289776D01*
X103133534Y-125074774D02*
X103073534Y-125014774D01*
X103133534Y-127053186D02*
X103133534Y-125074774D01*
X109220533Y-130132775D02*
X109103532Y-130249776D01*
X109920533Y-130132775D02*
X109220533Y-130132775D01*
X109103532Y-130249776D02*
X106839534Y-130249776D01*
X106839534Y-130249776D02*
X106029543Y-129439785D01*
X106029543Y-129439785D02*
X105520133Y-129439785D01*
X105520133Y-129439785D02*
X103133534Y-127053186D01*
X103551533Y-117032775D02*
X103551533Y-115457173D01*
X104551533Y-117032775D02*
X104551533Y-115922503D01*
X104868333Y-115605703D02*
X104868333Y-115299185D01*
X103551533Y-115457173D02*
X103668321Y-115340385D01*
X104551533Y-115922503D02*
X104868333Y-115605703D01*
X109103532Y-128979776D02*
X109220533Y-128862775D01*
X109220533Y-128862775D02*
X109920533Y-128862775D01*
X105706533Y-128979776D02*
X109103532Y-128979776D01*
X105706533Y-128989775D02*
X105706533Y-128979776D01*
X104423532Y-127696775D02*
X105706533Y-128979776D01*
X104423532Y-125094772D02*
X104423532Y-127696775D01*
X103957530Y-125014774D02*
X104343534Y-125014774D01*
X104051533Y-118760771D02*
X104040531Y-118771773D01*
X104051533Y-117507775D02*
X104051533Y-118760771D01*
X104040531Y-118771773D02*
X104040531Y-122782775D01*
X104343534Y-125014774D02*
X104423532Y-125094772D01*
X104040531Y-122782775D02*
X103766534Y-123056772D01*
X103766534Y-123056772D02*
X103766534Y-124823778D01*
X103766534Y-124823778D02*
X103957530Y-125014774D01*
X103051533Y-114931575D02*
X103051533Y-117032775D01*
X103242733Y-114740375D02*
X103051533Y-114931575D01*
X104051533Y-117032775D02*
X104051533Y-115816349D01*
X104251533Y-114740375D02*
X103242733Y-114740375D01*
X104268323Y-114757165D02*
X104251533Y-114740375D01*
X104268323Y-115599559D02*
X104268323Y-114757165D01*
X104051533Y-115816349D02*
X104268323Y-115599559D01*
X110786534Y-139657776D02*
X111421533Y-140292775D01*
X110430534Y-139657776D02*
X110786534Y-139657776D01*
X108017533Y-137244775D02*
X110430534Y-139657776D01*
X107842533Y-137244775D02*
X108017533Y-137244775D01*
X97079558Y-125052775D02*
X96181533Y-125052775D01*
X98681533Y-125052775D02*
X97079558Y-125052775D01*
X99443533Y-125814775D02*
X98681533Y-125052775D01*
X99968533Y-125814775D02*
X99443533Y-125814775D01*
X110786534Y-130767774D02*
X111421533Y-130132775D01*
X110151533Y-131402775D02*
X110786534Y-130767774D01*
X109920533Y-131402775D02*
X110151533Y-131402775D01*
X104631709Y-131761480D02*
X105960533Y-130432656D01*
X105960533Y-130432656D02*
X105960533Y-130259775D01*
X107142533Y-134704775D02*
X106976533Y-134870775D01*
X106976533Y-134870775D02*
X106976533Y-140292775D01*
X107842533Y-134704775D02*
X107142533Y-134704775D01*
X108119533Y-140292775D02*
X108170333Y-140241975D01*
X106976533Y-140292775D02*
X108119533Y-140292775D01*
X111422000Y-132075000D02*
X111422000Y-132673000D01*
X109920533Y-132672775D02*
X111421533Y-132672775D01*
X97682533Y-136482775D02*
X98767532Y-137567774D01*
X98767532Y-137567774D02*
X98767532Y-138427566D01*
X98767532Y-138427566D02*
X98467533Y-138727565D01*
X96182000Y-134615000D02*
X96182000Y-135213000D01*
X96181533Y-135212775D02*
X97682533Y-135212775D01*
X96181533Y-136854750D02*
X96181533Y-137752775D01*
X97857533Y-133942775D02*
X98482534Y-134567776D01*
X98482534Y-134567776D02*
X98482534Y-135777776D01*
X96181533Y-136618773D02*
X96181533Y-136854750D01*
X98482534Y-135777776D02*
X98412535Y-135847775D01*
X97682533Y-133942775D02*
X97857533Y-133942775D01*
X98412535Y-135847775D02*
X96952531Y-135847775D01*
X96952531Y-135847775D02*
X96181533Y-136618773D01*
X99481533Y-116117775D02*
X99481533Y-111937775D01*
X108121533Y-111937775D02*
X108121533Y-116117775D01*
X107963524Y-111779766D02*
X108121533Y-111937775D01*
X99639542Y-111779766D02*
X107963524Y-111779766D01*
X99481533Y-111937775D02*
X99639542Y-111779766D01*
X102551533Y-117032775D02*
X102551533Y-114043926D01*
X102551533Y-114043926D02*
X102411236Y-113903629D01*
X105749351Y-113643551D02*
X105449352Y-113343552D01*
X105551533Y-117032775D02*
X105551533Y-115647384D01*
X105749351Y-115039255D02*
X105749351Y-113643551D01*
X105666521Y-115122085D02*
X105749351Y-115039255D01*
X105551533Y-115647384D02*
X105666521Y-115532396D01*
X105666521Y-115532396D02*
X105666521Y-115122085D01*
X106951533Y-124278775D02*
X107679534Y-125006776D01*
X106951533Y-124103775D02*
X106951533Y-124278775D01*
X108371264Y-125060062D02*
X108671263Y-125360061D01*
X108317978Y-125006776D02*
X108371264Y-125060062D01*
X107679534Y-125006776D02*
X108317978Y-125006776D01*
X96182000Y-119973000D02*
X96516000Y-119639000D01*
X97070533Y-120861775D02*
X102234271Y-120861775D01*
X96181533Y-119972775D02*
X97070533Y-120861775D01*
X102234271Y-120861775D02*
X102658535Y-120861775D01*
X97146733Y-139327575D02*
X101949733Y-139327575D01*
X96181533Y-140292775D02*
X97146733Y-139327575D01*
X101949733Y-139327575D02*
X107842533Y-133434775D01*
X111422000Y-112353000D02*
X111422000Y-112079800D01*
X96385600Y-132469400D02*
X96182000Y-132673000D01*
X97451533Y-131402775D02*
X97682533Y-131402775D01*
X96181533Y-132672775D02*
X97451533Y-131402775D01*
M02*
