M48
; DRILL file {KiCad (5.1.10)-1} date 09/27/21 22:25:24
; FORMAT={-:-/ absolute / inch / decimal}
; #@! TF.CreationDate,2021-09-27T22:25:24-06:00
; #@! TF.GenerationSoftware,Kicad,Pcbnew,(5.1.10)-1
; #@! TF.FileFunction,Plated,1,2,PTH
FMAT,2
INCH
T1C0.0157
T2C0.0197
T3C0.0236
T4C0.0315
T5C0.0325
T6C0.0394
%
G90
G05
T1
X3.74Y-4.3616
X3.8367Y-4.6883
X3.8725Y-4.8133
X3.8767Y-5.4617
X3.8851Y-5.0683
X3.9017Y-5.2233
X3.9567Y-4.8133
X3.9957Y-4.4283
X4.0031Y-4.6983
X4.0167Y-5.0583
X4.0167Y-5.1983
X4.0317Y-5.1533
X4.0319Y-4.4844
X4.0417Y-4.7583
X4.0814Y-4.541
X4.1194Y-5.1875
X4.1287Y-4.5393
X4.1515Y-4.4623
X4.1517Y-5.0183
X4.1607Y-4.7913
X4.1717Y-5.1283
X4.1788Y-5.2242
X4.1967Y-4.4283
X4.2587Y-5.5213
X4.2784Y-4.9354
X4.3206Y-4.8653
X4.3364Y-4.9435
T2
X3.9358Y-4.9533
X3.9858Y-4.9533
X4.0358Y-4.9533
X4.0858Y-4.9533
X4.1358Y-4.9533
X4.1858Y-4.9533
X4.2358Y-4.9533
X4.2458Y-5.0533
X4.2458Y-5.1033
X4.2458Y-5.1533
X4.2458Y-5.2033
X4.2458Y-5.2533
X4.2458Y-5.3033
X4.2458Y-5.3533
X4.2458Y-5.4033
T4
X4.4467Y-5.0733
X4.4467Y-5.1733
X4.4467Y-5.2733
X4.4467Y-5.3733
T5
X3.7867Y-4.4233
X3.7867Y-4.5233
X3.7867Y-4.6233
X3.7867Y-4.7233
X3.7867Y-4.8233
X3.7867Y-4.9233
X3.7867Y-5.0233
X3.7867Y-5.1233
X3.7867Y-5.2233
X3.7867Y-5.3233
X3.7867Y-5.4233
X3.7867Y-5.5233
X4.3867Y-4.4233
X4.3867Y-4.5233
X4.3867Y-4.6233
X4.3867Y-4.7233
X4.3867Y-4.8233
X4.3867Y-4.9233
X4.3867Y-5.0233
X4.3867Y-5.1233
X4.3867Y-5.2233
X4.3867Y-5.3233
X4.3867Y-5.4233
X4.3867Y-5.5233
T6
X3.8517Y-4.4233
X3.8517Y-4.5233
T3
G00X3.9166Y-4.3952
M15
G01X3.9166Y-4.4188
M16
G05
G00X3.9166Y-4.5499
M15
G01X3.9166Y-4.5932
M16
G05
G00X4.2568Y-4.3952
M15
G01X4.2568Y-4.4188
M16
G05
G00X4.2568Y-4.5499
M15
G01X4.2568Y-4.5932
M16
G05
T0
M30
