G04 #@! TF.GenerationSoftware,KiCad,Pcbnew,(5.1.10)-1*
G04 #@! TF.CreationDate,2021-09-27T22:25:22-06:00*
G04 #@! TF.ProjectId,BlueMicro833_vddh,426c7565-4d69-4637-926f-3833335f7664,rev?*
G04 #@! TF.SameCoordinates,Original*
G04 #@! TF.FileFunction,Legend,Bot*
G04 #@! TF.FilePolarity,Positive*
%FSLAX46Y46*%
G04 Gerber Fmt 4.6, Leading zero omitted, Abs format (unit mm)*
G04 Created by KiCad (PCBNEW (5.1.10)-1) date 2021-09-27 22:25:22*
%MOMM*%
%LPD*%
G01*
G04 APERTURE LIST*
%ADD10C,0.150000*%
%ADD11C,0.200000*%
%ADD12C,0.100000*%
%ADD13C,0.120000*%
G04 APERTURE END LIST*
D10*
X104175104Y-128641108D02*
X104175104Y-128307775D01*
X104698913Y-128307775D02*
X103698913Y-128307775D01*
X103698913Y-128783965D01*
X104698913Y-129307775D02*
X104651294Y-129212536D01*
X104603675Y-129164917D01*
X104508437Y-129117298D01*
X104222723Y-129117298D01*
X104127485Y-129164917D01*
X104079866Y-129212536D01*
X104032247Y-129307775D01*
X104032247Y-129450632D01*
X104079866Y-129545870D01*
X104127485Y-129593489D01*
X104222723Y-129641108D01*
X104508437Y-129641108D01*
X104603675Y-129593489D01*
X104651294Y-129545870D01*
X104698913Y-129450632D01*
X104698913Y-129307775D01*
X104698913Y-130069679D02*
X104032247Y-130069679D01*
X104222723Y-130069679D02*
X104127485Y-130117298D01*
X104079866Y-130164917D01*
X104032247Y-130260155D01*
X104032247Y-130355394D01*
X103698913Y-131450632D02*
X104508437Y-131450632D01*
X104603675Y-131498251D01*
X104651294Y-131545870D01*
X104698913Y-131641108D01*
X104698913Y-131831584D01*
X104651294Y-131926822D01*
X104603675Y-131974441D01*
X104508437Y-132022060D01*
X103698913Y-132022060D01*
X104651294Y-132450632D02*
X104698913Y-132545870D01*
X104698913Y-132736346D01*
X104651294Y-132831584D01*
X104556056Y-132879203D01*
X104508437Y-132879203D01*
X104413199Y-132831584D01*
X104365580Y-132736346D01*
X104365580Y-132593489D01*
X104317961Y-132498251D01*
X104222723Y-132450632D01*
X104175104Y-132450632D01*
X104079866Y-132498251D01*
X104032247Y-132593489D01*
X104032247Y-132736346D01*
X104079866Y-132831584D01*
X104651294Y-133688727D02*
X104698913Y-133593489D01*
X104698913Y-133403013D01*
X104651294Y-133307775D01*
X104556056Y-133260155D01*
X104175104Y-133260155D01*
X104079866Y-133307775D01*
X104032247Y-133403013D01*
X104032247Y-133593489D01*
X104079866Y-133688727D01*
X104175104Y-133736346D01*
X104270342Y-133736346D01*
X104365580Y-133260155D01*
X103698913Y-134831584D02*
X104698913Y-135069679D01*
X103984628Y-135260155D01*
X104698913Y-135450632D01*
X103698913Y-135688727D01*
X104698913Y-136069679D02*
X104032247Y-136069679D01*
X103698913Y-136069679D02*
X103746533Y-136022060D01*
X103794152Y-136069679D01*
X103746533Y-136117298D01*
X103698913Y-136069679D01*
X103794152Y-136069679D01*
X104032247Y-136403013D02*
X104032247Y-136783965D01*
X103698913Y-136545870D02*
X104556056Y-136545870D01*
X104651294Y-136593489D01*
X104698913Y-136688727D01*
X104698913Y-136783965D01*
X104698913Y-137117298D02*
X103698913Y-137117298D01*
X104698913Y-137545870D02*
X104175104Y-137545870D01*
X104079866Y-137498251D01*
X104032247Y-137403013D01*
X104032247Y-137260155D01*
X104079866Y-137164917D01*
X104127485Y-137117298D01*
X105825104Y-127141108D02*
X105825104Y-127474441D01*
X106348913Y-127617298D02*
X106348913Y-127141108D01*
X105348913Y-127141108D01*
X105348913Y-127617298D01*
X105348913Y-127950632D02*
X105348913Y-128617298D01*
X106348913Y-128188727D01*
X105348913Y-128903013D02*
X105348913Y-129522060D01*
X105729866Y-129188727D01*
X105729866Y-129331584D01*
X105777485Y-129426822D01*
X105825104Y-129474441D01*
X105920342Y-129522060D01*
X106158437Y-129522060D01*
X106253675Y-129474441D01*
X106301294Y-129426822D01*
X106348913Y-129331584D01*
X106348913Y-129045870D01*
X106301294Y-128950632D01*
X106253675Y-128903013D01*
X105967961Y-129950632D02*
X105967961Y-130712536D01*
X105444152Y-131141108D02*
X105396533Y-131188727D01*
X105348913Y-131283965D01*
X105348913Y-131522060D01*
X105396533Y-131617298D01*
X105444152Y-131664917D01*
X105539390Y-131712536D01*
X105634628Y-131712536D01*
X105777485Y-131664917D01*
X106348913Y-131093489D01*
X106348913Y-131712536D01*
X105396533Y-132664917D02*
X105348913Y-132569679D01*
X105348913Y-132426822D01*
X105396533Y-132283965D01*
X105491771Y-132188727D01*
X105587009Y-132141108D01*
X105777485Y-132093489D01*
X105920342Y-132093489D01*
X106110818Y-132141108D01*
X106206056Y-132188727D01*
X106301294Y-132283965D01*
X106348913Y-132426822D01*
X106348913Y-132522060D01*
X106301294Y-132664917D01*
X106253675Y-132712536D01*
X105920342Y-132712536D01*
X105920342Y-132522060D01*
X105682247Y-133569679D02*
X106348913Y-133569679D01*
X105301294Y-133331584D02*
X106015580Y-133093489D01*
X106015580Y-133712536D01*
X106348913Y-134093489D02*
X105348913Y-134093489D01*
X106063199Y-134426822D01*
X105348913Y-134760155D01*
X106348913Y-134760155D01*
X105348913Y-135426822D02*
X105348913Y-135522060D01*
X105396533Y-135617298D01*
X105444152Y-135664917D01*
X105539390Y-135712536D01*
X105729866Y-135760155D01*
X105967961Y-135760155D01*
X106158437Y-135712536D01*
X106253675Y-135664917D01*
X106301294Y-135617298D01*
X106348913Y-135522060D01*
X106348913Y-135426822D01*
X106301294Y-135331584D01*
X106253675Y-135283965D01*
X106158437Y-135236346D01*
X105967961Y-135188727D01*
X105729866Y-135188727D01*
X105539390Y-135236346D01*
X105444152Y-135283965D01*
X105396533Y-135331584D01*
X105348913Y-135426822D01*
X105777485Y-136331584D02*
X105729866Y-136236346D01*
X105682247Y-136188727D01*
X105587009Y-136141108D01*
X105539390Y-136141108D01*
X105444152Y-136188727D01*
X105396533Y-136236346D01*
X105348913Y-136331584D01*
X105348913Y-136522060D01*
X105396533Y-136617298D01*
X105444152Y-136664917D01*
X105539390Y-136712536D01*
X105587009Y-136712536D01*
X105682247Y-136664917D01*
X105729866Y-136617298D01*
X105777485Y-136522060D01*
X105777485Y-136331584D01*
X105825104Y-136236346D01*
X105872723Y-136188727D01*
X105967961Y-136141108D01*
X106158437Y-136141108D01*
X106253675Y-136188727D01*
X106301294Y-136236346D01*
X106348913Y-136331584D01*
X106348913Y-136522060D01*
X106301294Y-136617298D01*
X106253675Y-136664917D01*
X106158437Y-136712536D01*
X105967961Y-136712536D01*
X105872723Y-136664917D01*
X105825104Y-136617298D01*
X105777485Y-136522060D01*
X106301294Y-137093489D02*
X106348913Y-137236346D01*
X106348913Y-137474441D01*
X106301294Y-137569679D01*
X106253675Y-137617298D01*
X106158437Y-137664917D01*
X106063199Y-137664917D01*
X105967961Y-137617298D01*
X105920342Y-137569679D01*
X105872723Y-137474441D01*
X105825104Y-137283965D01*
X105777485Y-137188727D01*
X105729866Y-137141108D01*
X105634628Y-137093489D01*
X105539390Y-137093489D01*
X105444152Y-137141108D01*
X105396533Y-137188727D01*
X105348913Y-137283965D01*
X105348913Y-137522060D01*
X105396533Y-137664917D01*
X106348913Y-138617298D02*
X106348913Y-138045870D01*
X106348913Y-138331584D02*
X105348913Y-138331584D01*
X105491771Y-138236346D01*
X105587009Y-138141108D01*
X105634628Y-138045870D01*
X105825104Y-139045870D02*
X105825104Y-139379203D01*
X106348913Y-139522060D02*
X106348913Y-139045870D01*
X105348913Y-139045870D01*
X105348913Y-139522060D01*
D11*
X97832533Y-113876775D02*
X96181533Y-114130775D01*
X97197533Y-113368775D02*
X96562533Y-113241775D01*
X97197533Y-111336775D02*
X96562533Y-111463775D01*
X97832533Y-115908775D02*
X96181533Y-115654775D01*
D12*
X107692390Y-121660132D02*
X107728104Y-121695846D01*
X107835247Y-121731560D01*
X107906675Y-121731560D01*
X108013818Y-121695846D01*
X108085247Y-121624417D01*
X108120961Y-121552989D01*
X108156675Y-121410132D01*
X108156675Y-121302989D01*
X108120961Y-121160132D01*
X108085247Y-121088703D01*
X108013818Y-121017275D01*
X107906675Y-120981560D01*
X107835247Y-120981560D01*
X107728104Y-121017275D01*
X107692390Y-121052989D01*
X107263818Y-121731560D02*
X107335247Y-121695846D01*
X107370961Y-121660132D01*
X107406675Y-121588703D01*
X107406675Y-121374417D01*
X107370961Y-121302989D01*
X107335247Y-121267275D01*
X107263818Y-121231560D01*
X107156675Y-121231560D01*
X107085247Y-121267275D01*
X107049533Y-121302989D01*
X107013818Y-121374417D01*
X107013818Y-121588703D01*
X107049533Y-121660132D01*
X107085247Y-121695846D01*
X107156675Y-121731560D01*
X107263818Y-121731560D01*
X106692390Y-121231560D02*
X106692390Y-121731560D01*
X106692390Y-121302989D02*
X106656675Y-121267275D01*
X106585247Y-121231560D01*
X106478104Y-121231560D01*
X106406675Y-121267275D01*
X106370961Y-121338703D01*
X106370961Y-121731560D01*
X106120961Y-121231560D02*
X105835247Y-121231560D01*
X106013818Y-120981560D02*
X106013818Y-121624417D01*
X105978104Y-121695846D01*
X105906675Y-121731560D01*
X105835247Y-121731560D01*
X105263818Y-121731560D02*
X105263818Y-121338703D01*
X105299533Y-121267275D01*
X105370961Y-121231560D01*
X105513818Y-121231560D01*
X105585247Y-121267275D01*
X105263818Y-121695846D02*
X105335247Y-121731560D01*
X105513818Y-121731560D01*
X105585247Y-121695846D01*
X105620961Y-121624417D01*
X105620961Y-121552989D01*
X105585247Y-121481560D01*
X105513818Y-121445846D01*
X105335247Y-121445846D01*
X105263818Y-121410132D01*
X104906675Y-121731560D02*
X104906675Y-121231560D01*
X104906675Y-120981560D02*
X104942390Y-121017275D01*
X104906675Y-121052989D01*
X104870961Y-121017275D01*
X104906675Y-120981560D01*
X104906675Y-121052989D01*
X104549533Y-121231560D02*
X104549533Y-121731560D01*
X104549533Y-121302989D02*
X104513818Y-121267275D01*
X104442390Y-121231560D01*
X104335247Y-121231560D01*
X104263818Y-121267275D01*
X104228104Y-121338703D01*
X104228104Y-121731560D01*
X103906675Y-121695846D02*
X103835247Y-121731560D01*
X103692390Y-121731560D01*
X103620961Y-121695846D01*
X103585247Y-121624417D01*
X103585247Y-121588703D01*
X103620961Y-121517275D01*
X103692390Y-121481560D01*
X103799533Y-121481560D01*
X103870961Y-121445846D01*
X103906675Y-121374417D01*
X103906675Y-121338703D01*
X103870961Y-121267275D01*
X103799533Y-121231560D01*
X103692390Y-121231560D01*
X103620961Y-121267275D01*
X102442390Y-121338703D02*
X102692390Y-121338703D01*
X102692390Y-121731560D02*
X102692390Y-120981560D01*
X102335247Y-120981560D01*
X101620961Y-121660132D02*
X101656675Y-121695846D01*
X101763818Y-121731560D01*
X101835247Y-121731560D01*
X101942390Y-121695846D01*
X102013818Y-121624417D01*
X102049533Y-121552989D01*
X102085247Y-121410132D01*
X102085247Y-121302989D01*
X102049533Y-121160132D01*
X102013818Y-121088703D01*
X101942390Y-121017275D01*
X101835247Y-120981560D01*
X101763818Y-120981560D01*
X101656675Y-121017275D01*
X101620961Y-121052989D01*
X100870961Y-121660132D02*
X100906675Y-121695846D01*
X101013818Y-121731560D01*
X101085247Y-121731560D01*
X101192390Y-121695846D01*
X101263818Y-121624417D01*
X101299533Y-121552989D01*
X101335247Y-121410132D01*
X101335247Y-121302989D01*
X101299533Y-121160132D01*
X101263818Y-121088703D01*
X101192390Y-121017275D01*
X101085247Y-120981560D01*
X101013818Y-120981560D01*
X100906675Y-121017275D01*
X100870961Y-121052989D01*
X99978104Y-121731560D02*
X99978104Y-120981560D01*
X99620961Y-121731560D02*
X99620961Y-120981560D01*
X99442390Y-120981560D01*
X99335247Y-121017275D01*
X99263818Y-121088703D01*
X99228104Y-121160132D01*
X99192390Y-121302989D01*
X99192390Y-121410132D01*
X99228104Y-121552989D01*
X99263818Y-121624417D01*
X99335247Y-121695846D01*
X99442390Y-121731560D01*
X99620961Y-121731560D01*
X106799533Y-122277989D02*
X106763818Y-122242275D01*
X106692390Y-122206560D01*
X106513818Y-122206560D01*
X106442390Y-122242275D01*
X106406675Y-122277989D01*
X106370961Y-122349417D01*
X106370961Y-122420846D01*
X106406675Y-122527989D01*
X106835247Y-122956560D01*
X106370961Y-122956560D01*
X106085247Y-122742275D02*
X105728104Y-122742275D01*
X106156675Y-122956560D02*
X105906675Y-122206560D01*
X105656675Y-122956560D01*
X105049533Y-122956560D02*
X105406675Y-122956560D01*
X105406675Y-122206560D01*
X104799533Y-122956560D02*
X104799533Y-122206560D01*
X104513818Y-122206560D01*
X104442390Y-122242275D01*
X104406675Y-122277989D01*
X104370961Y-122349417D01*
X104370961Y-122456560D01*
X104406675Y-122527989D01*
X104442390Y-122563703D01*
X104513818Y-122599417D01*
X104799533Y-122599417D01*
X104049533Y-122956560D02*
X104049533Y-122206560D01*
X104049533Y-122563703D02*
X103620961Y-122563703D01*
X103620961Y-122956560D02*
X103620961Y-122206560D01*
X103263818Y-122670846D02*
X102692390Y-122670846D01*
X102335247Y-122563703D02*
X102085247Y-122563703D01*
X101978104Y-122956560D02*
X102335247Y-122956560D01*
X102335247Y-122206560D01*
X101978104Y-122206560D01*
X101728104Y-122206560D02*
X101228104Y-122206560D01*
X101549533Y-122956560D01*
X101013818Y-122206560D02*
X100549533Y-122206560D01*
X100799533Y-122492275D01*
X100692390Y-122492275D01*
X100620961Y-122527989D01*
X100585247Y-122563703D01*
X100549533Y-122635132D01*
X100549533Y-122813703D01*
X100585247Y-122885132D01*
X100620961Y-122920846D01*
X100692390Y-122956560D01*
X100906675Y-122956560D01*
X100978104Y-122920846D01*
X101013818Y-122885132D01*
X106522247Y-110108489D02*
X106272247Y-110465632D01*
X106093675Y-110108489D02*
X106093675Y-110858489D01*
X106379390Y-110858489D01*
X106450818Y-110822775D01*
X106486533Y-110787060D01*
X106522247Y-110715632D01*
X106522247Y-110608489D01*
X106486533Y-110537060D01*
X106450818Y-110501346D01*
X106379390Y-110465632D01*
X106093675Y-110465632D01*
X106843675Y-110501346D02*
X107093675Y-110501346D01*
X107200818Y-110108489D02*
X106843675Y-110108489D01*
X106843675Y-110858489D01*
X107200818Y-110858489D01*
X107486533Y-110144203D02*
X107593675Y-110108489D01*
X107772247Y-110108489D01*
X107843675Y-110144203D01*
X107879390Y-110179917D01*
X107915104Y-110251346D01*
X107915104Y-110322775D01*
X107879390Y-110394203D01*
X107843675Y-110429917D01*
X107772247Y-110465632D01*
X107629390Y-110501346D01*
X107557961Y-110537060D01*
X107522247Y-110572775D01*
X107486533Y-110644203D01*
X107486533Y-110715632D01*
X107522247Y-110787060D01*
X107557961Y-110822775D01*
X107629390Y-110858489D01*
X107807961Y-110858489D01*
X107915104Y-110822775D01*
X108236533Y-110501346D02*
X108486533Y-110501346D01*
X108593675Y-110108489D02*
X108236533Y-110108489D01*
X108236533Y-110858489D01*
X108593675Y-110858489D01*
X108807961Y-110858489D02*
X109236533Y-110858489D01*
X109022247Y-110108489D02*
X109022247Y-110858489D01*
D11*
X112374033Y-122639775D02*
X113961533Y-122639775D01*
X112374033Y-127973775D02*
X112374033Y-122639775D01*
X111548533Y-128799275D02*
X112374033Y-127973775D01*
X112882033Y-130132775D02*
X111548533Y-128799275D01*
X111612033Y-131402775D02*
X112882033Y-130132775D01*
X112818533Y-132736275D02*
X111612033Y-131402775D01*
X112755033Y-132799775D02*
X112818533Y-132736275D01*
X111612033Y-133942775D02*
X112755033Y-132799775D01*
X112818533Y-135212775D02*
X111612033Y-133942775D01*
X111548533Y-136482775D02*
X112818533Y-135212775D01*
X112374033Y-137308275D02*
X111548533Y-136482775D01*
X112374033Y-141562775D02*
X112374033Y-137308275D01*
D12*
X113467390Y-138100203D02*
X113503104Y-138064489D01*
X113538818Y-137957346D01*
X113538818Y-137885917D01*
X113503104Y-137778775D01*
X113431675Y-137707346D01*
X113360247Y-137671632D01*
X113217390Y-137635917D01*
X113110247Y-137635917D01*
X112967390Y-137671632D01*
X112895961Y-137707346D01*
X112824533Y-137778775D01*
X112788818Y-137885917D01*
X112788818Y-137957346D01*
X112824533Y-138064489D01*
X112860247Y-138100203D01*
X113538818Y-138778775D02*
X113538818Y-138421632D01*
X112788818Y-138421632D01*
X113538818Y-139028775D02*
X112788818Y-139028775D01*
X113538818Y-139457346D02*
X113110247Y-139135917D01*
X112788818Y-139457346D02*
X113217390Y-139028775D01*
X113538818Y-140350203D02*
X112788818Y-140350203D01*
X112788818Y-140850203D02*
X112788818Y-140993060D01*
X112824533Y-141064489D01*
X112895961Y-141135917D01*
X113038818Y-141171632D01*
X113288818Y-141171632D01*
X113431675Y-141135917D01*
X113503104Y-141064489D01*
X113538818Y-140993060D01*
X113538818Y-140850203D01*
X113503104Y-140778775D01*
X113431675Y-140707346D01*
X113288818Y-140671632D01*
X113038818Y-140671632D01*
X112895961Y-140707346D01*
X112824533Y-140778775D01*
X112788818Y-140850203D01*
D10*
X100950437Y-137130013D02*
X101521866Y-137130013D01*
X101636152Y-137168108D01*
X101712342Y-137244298D01*
X101750437Y-137358584D01*
X101750437Y-137434775D01*
X101750437Y-136368108D02*
X101750437Y-136749060D01*
X100950437Y-136749060D01*
X101674247Y-135644298D02*
X101712342Y-135682394D01*
X101750437Y-135796679D01*
X101750437Y-135872870D01*
X101712342Y-135987155D01*
X101636152Y-136063346D01*
X101559961Y-136101441D01*
X101407580Y-136139536D01*
X101293294Y-136139536D01*
X101140913Y-136101441D01*
X101064723Y-136063346D01*
X100988533Y-135987155D01*
X100950437Y-135872870D01*
X100950437Y-135796679D01*
X100988533Y-135682394D01*
X101026628Y-135644298D01*
X100950437Y-135072870D02*
X101521866Y-135072870D01*
X101636152Y-135110965D01*
X101712342Y-135187155D01*
X101750437Y-135301441D01*
X101750437Y-135377632D01*
X101750437Y-134310965D02*
X101750437Y-134691917D01*
X100950437Y-134691917D01*
X101674247Y-133587155D02*
X101712342Y-133625251D01*
X101750437Y-133739536D01*
X101750437Y-133815727D01*
X101712342Y-133930013D01*
X101636152Y-134006203D01*
X101559961Y-134044298D01*
X101407580Y-134082394D01*
X101293294Y-134082394D01*
X101140913Y-134044298D01*
X101064723Y-134006203D01*
X100988533Y-133930013D01*
X100950437Y-133815727D01*
X100950437Y-133739536D01*
X100988533Y-133625251D01*
X101026628Y-133587155D01*
X100950437Y-133015727D02*
X101521866Y-133015727D01*
X101636152Y-133053822D01*
X101712342Y-133130013D01*
X101750437Y-133244298D01*
X101750437Y-133320489D01*
X101750437Y-132253822D02*
X101750437Y-132634775D01*
X100950437Y-132634775D01*
X101674247Y-131530013D02*
X101712342Y-131568108D01*
X101750437Y-131682394D01*
X101750437Y-131758584D01*
X101712342Y-131872870D01*
X101636152Y-131949060D01*
X101559961Y-131987155D01*
X101407580Y-132025251D01*
X101293294Y-132025251D01*
X101140913Y-131987155D01*
X101064723Y-131949060D01*
X100988533Y-131872870D01*
X100950437Y-131758584D01*
X100950437Y-131682394D01*
X100988533Y-131568108D01*
X101026628Y-131530013D01*
X100950437Y-130958584D02*
X101521866Y-130958584D01*
X101636152Y-130996679D01*
X101712342Y-131072870D01*
X101750437Y-131187155D01*
X101750437Y-131263346D01*
X101750437Y-130196679D02*
X101750437Y-130577632D01*
X100950437Y-130577632D01*
X101674247Y-129472870D02*
X101712342Y-129510965D01*
X101750437Y-129625251D01*
X101750437Y-129701441D01*
X101712342Y-129815727D01*
X101636152Y-129891917D01*
X101559961Y-129930013D01*
X101407580Y-129968108D01*
X101293294Y-129968108D01*
X101140913Y-129930013D01*
X101064723Y-129891917D01*
X100988533Y-129815727D01*
X100950437Y-129701441D01*
X100950437Y-129625251D01*
X100988533Y-129510965D01*
X101026628Y-129472870D01*
D12*
X107303533Y-118925703D02*
X107196390Y-118961417D01*
X107160675Y-118997132D01*
X107124961Y-119068560D01*
X107124961Y-119175703D01*
X107160675Y-119247132D01*
X107196390Y-119282846D01*
X107267818Y-119318560D01*
X107553533Y-119318560D01*
X107553533Y-118568560D01*
X107303533Y-118568560D01*
X107232104Y-118604275D01*
X107196390Y-118639989D01*
X107160675Y-118711417D01*
X107160675Y-118782846D01*
X107196390Y-118854275D01*
X107232104Y-118889989D01*
X107303533Y-118925703D01*
X107553533Y-118925703D01*
X106696390Y-119318560D02*
X106767818Y-119282846D01*
X106803533Y-119211417D01*
X106803533Y-118568560D01*
X106089247Y-118818560D02*
X106089247Y-119318560D01*
X106410675Y-118818560D02*
X106410675Y-119211417D01*
X106374961Y-119282846D01*
X106303533Y-119318560D01*
X106196390Y-119318560D01*
X106124961Y-119282846D01*
X106089247Y-119247132D01*
X105446390Y-119282846D02*
X105517818Y-119318560D01*
X105660675Y-119318560D01*
X105732104Y-119282846D01*
X105767818Y-119211417D01*
X105767818Y-118925703D01*
X105732104Y-118854275D01*
X105660675Y-118818560D01*
X105517818Y-118818560D01*
X105446390Y-118854275D01*
X105410675Y-118925703D01*
X105410675Y-118997132D01*
X105767818Y-119068560D01*
X105089247Y-119318560D02*
X105089247Y-118568560D01*
X104839247Y-119104275D01*
X104589247Y-118568560D01*
X104589247Y-119318560D01*
X104232104Y-119318560D02*
X104232104Y-118818560D01*
X104232104Y-118568560D02*
X104267818Y-118604275D01*
X104232104Y-118639989D01*
X104196390Y-118604275D01*
X104232104Y-118568560D01*
X104232104Y-118639989D01*
X103553533Y-119282846D02*
X103624961Y-119318560D01*
X103767818Y-119318560D01*
X103839247Y-119282846D01*
X103874961Y-119247132D01*
X103910675Y-119175703D01*
X103910675Y-118961417D01*
X103874961Y-118889989D01*
X103839247Y-118854275D01*
X103767818Y-118818560D01*
X103624961Y-118818560D01*
X103553533Y-118854275D01*
X103232104Y-119318560D02*
X103232104Y-118818560D01*
X103232104Y-118961417D02*
X103196390Y-118889989D01*
X103160675Y-118854275D01*
X103089247Y-118818560D01*
X103017818Y-118818560D01*
X102660675Y-119318560D02*
X102732104Y-119282846D01*
X102767818Y-119247132D01*
X102803533Y-119175703D01*
X102803533Y-118961417D01*
X102767818Y-118889989D01*
X102732104Y-118854275D01*
X102660675Y-118818560D01*
X102553533Y-118818560D01*
X102482104Y-118854275D01*
X102446390Y-118889989D01*
X102410675Y-118961417D01*
X102410675Y-119175703D01*
X102446390Y-119247132D01*
X102482104Y-119282846D01*
X102553533Y-119318560D01*
X102660675Y-119318560D01*
X101982104Y-118889989D02*
X102053533Y-118854275D01*
X102089247Y-118818560D01*
X102124961Y-118747132D01*
X102124961Y-118711417D01*
X102089247Y-118639989D01*
X102053533Y-118604275D01*
X101982104Y-118568560D01*
X101839247Y-118568560D01*
X101767818Y-118604275D01*
X101732104Y-118639989D01*
X101696390Y-118711417D01*
X101696390Y-118747132D01*
X101732104Y-118818560D01*
X101767818Y-118854275D01*
X101839247Y-118889989D01*
X101982104Y-118889989D01*
X102053533Y-118925703D01*
X102089247Y-118961417D01*
X102124961Y-119032846D01*
X102124961Y-119175703D01*
X102089247Y-119247132D01*
X102053533Y-119282846D01*
X101982104Y-119318560D01*
X101839247Y-119318560D01*
X101767818Y-119282846D01*
X101732104Y-119247132D01*
X101696390Y-119175703D01*
X101696390Y-119032846D01*
X101732104Y-118961417D01*
X101767818Y-118925703D01*
X101839247Y-118889989D01*
X101446390Y-118568560D02*
X100982104Y-118568560D01*
X101232104Y-118854275D01*
X101124961Y-118854275D01*
X101053533Y-118889989D01*
X101017818Y-118925703D01*
X100982104Y-118997132D01*
X100982104Y-119175703D01*
X101017818Y-119247132D01*
X101053533Y-119282846D01*
X101124961Y-119318560D01*
X101339247Y-119318560D01*
X101410675Y-119282846D01*
X101446390Y-119247132D01*
X100732104Y-118568560D02*
X100267818Y-118568560D01*
X100517818Y-118854275D01*
X100410675Y-118854275D01*
X100339247Y-118889989D01*
X100303533Y-118925703D01*
X100267818Y-118997132D01*
X100267818Y-119175703D01*
X100303533Y-119247132D01*
X100339247Y-119282846D01*
X100410675Y-119318560D01*
X100624961Y-119318560D01*
X100696390Y-119282846D01*
X100732104Y-119247132D01*
X106214247Y-119793560D02*
X105964247Y-120543560D01*
X105714247Y-119793560D01*
X105464247Y-120543560D02*
X105464247Y-119793560D01*
X105285675Y-119793560D01*
X105178533Y-119829275D01*
X105107104Y-119900703D01*
X105071390Y-119972132D01*
X105035675Y-120114989D01*
X105035675Y-120222132D01*
X105071390Y-120364989D01*
X105107104Y-120436417D01*
X105178533Y-120507846D01*
X105285675Y-120543560D01*
X105464247Y-120543560D01*
X104714247Y-120543560D02*
X104714247Y-119793560D01*
X104535675Y-119793560D01*
X104428533Y-119829275D01*
X104357104Y-119900703D01*
X104321390Y-119972132D01*
X104285675Y-120114989D01*
X104285675Y-120222132D01*
X104321390Y-120364989D01*
X104357104Y-120436417D01*
X104428533Y-120507846D01*
X104535675Y-120543560D01*
X104714247Y-120543560D01*
X103964247Y-120543560D02*
X103964247Y-119793560D01*
X103964247Y-120150703D02*
X103535675Y-120150703D01*
X103535675Y-120543560D02*
X103535675Y-119793560D01*
X102785675Y-120543560D02*
X103214247Y-120543560D01*
X102999961Y-120543560D02*
X102999961Y-119793560D01*
X103071390Y-119900703D01*
X103142818Y-119972132D01*
X103214247Y-120007846D01*
X102464247Y-120472132D02*
X102428533Y-120507846D01*
X102464247Y-120543560D01*
X102499961Y-120507846D01*
X102464247Y-120472132D01*
X102464247Y-120543560D01*
X101964247Y-119793560D02*
X101892818Y-119793560D01*
X101821390Y-119829275D01*
X101785675Y-119864989D01*
X101749961Y-119936417D01*
X101714247Y-120079275D01*
X101714247Y-120257846D01*
X101749961Y-120400703D01*
X101785675Y-120472132D01*
X101821390Y-120507846D01*
X101892818Y-120543560D01*
X101964247Y-120543560D01*
X102035675Y-120507846D01*
X102071390Y-120472132D01*
X102107104Y-120400703D01*
X102142818Y-120257846D01*
X102142818Y-120079275D01*
X102107104Y-119936417D01*
X102071390Y-119864989D01*
X102035675Y-119829275D01*
X101964247Y-119793560D01*
X112788818Y-122941703D02*
X113538818Y-123191703D01*
X112788818Y-123441703D01*
X113467390Y-124120275D02*
X113503104Y-124084560D01*
X113538818Y-123977417D01*
X113538818Y-123905989D01*
X113503104Y-123798846D01*
X113431675Y-123727417D01*
X113360247Y-123691703D01*
X113217390Y-123655989D01*
X113110247Y-123655989D01*
X112967390Y-123691703D01*
X112895961Y-123727417D01*
X112824533Y-123798846D01*
X112788818Y-123905989D01*
X112788818Y-123977417D01*
X112824533Y-124084560D01*
X112860247Y-124120275D01*
X113467390Y-124870275D02*
X113503104Y-124834560D01*
X113538818Y-124727417D01*
X113538818Y-124655989D01*
X113503104Y-124548846D01*
X113431675Y-124477417D01*
X113360247Y-124441703D01*
X113217390Y-124405989D01*
X113110247Y-124405989D01*
X112967390Y-124441703D01*
X112895961Y-124477417D01*
X112824533Y-124548846D01*
X112788818Y-124655989D01*
X112788818Y-124727417D01*
X112824533Y-124834560D01*
X112860247Y-124870275D01*
X112824533Y-126155989D02*
X112788818Y-126084560D01*
X112788818Y-125977417D01*
X112824533Y-125870275D01*
X112895961Y-125798846D01*
X112967390Y-125763132D01*
X113110247Y-125727417D01*
X113217390Y-125727417D01*
X113360247Y-125763132D01*
X113431675Y-125798846D01*
X113503104Y-125870275D01*
X113538818Y-125977417D01*
X113538818Y-126048846D01*
X113503104Y-126155989D01*
X113467390Y-126191703D01*
X113217390Y-126191703D01*
X113217390Y-126048846D01*
X113538818Y-126513132D02*
X112788818Y-126513132D01*
X113538818Y-126941703D01*
X112788818Y-126941703D01*
X113538818Y-127298846D02*
X112788818Y-127298846D01*
X112788818Y-127477417D01*
X112824533Y-127584560D01*
X112895961Y-127655989D01*
X112967390Y-127691703D01*
X113110247Y-127727417D01*
X113217390Y-127727417D01*
X113360247Y-127691703D01*
X113431675Y-127655989D01*
X113503104Y-127584560D01*
X113538818Y-127477417D01*
X113538818Y-127298846D01*
D13*
X99101533Y-110987775D02*
X99101533Y-109087775D01*
X99101533Y-114887775D02*
X99101533Y-112887775D01*
X108501533Y-110987775D02*
X108501533Y-109087775D01*
X108501533Y-114887775D02*
X108501533Y-112887775D01*
X99101533Y-109087775D02*
X108501533Y-109087775D01*
X110749933Y-110523975D02*
G75*
G03*
X110749933Y-110523975I-700000J0D01*
G01*
D10*
X112722533Y-116835941D02*
X112689199Y-116769275D01*
X112689199Y-116669275D01*
X112722533Y-116569275D01*
X112789199Y-116502608D01*
X112855866Y-116469275D01*
X112989199Y-116435941D01*
X113089199Y-116435941D01*
X113222533Y-116469275D01*
X113289199Y-116502608D01*
X113355866Y-116569275D01*
X113389199Y-116669275D01*
X113389199Y-116735941D01*
X113355866Y-116835941D01*
X113322533Y-116869275D01*
X113089199Y-116869275D01*
X113089199Y-116735941D01*
X113389199Y-117169275D02*
X112689199Y-117169275D01*
X113389199Y-117569275D01*
X112689199Y-117569275D01*
X113389199Y-117902608D02*
X112689199Y-117902608D01*
X112689199Y-118069275D01*
X112722533Y-118169275D01*
X112789199Y-118235941D01*
X112855866Y-118269275D01*
X112989199Y-118302608D01*
X113089199Y-118302608D01*
X113222533Y-118269275D01*
X113289199Y-118235941D01*
X113355866Y-118169275D01*
X113389199Y-118069275D01*
X113389199Y-117902608D01*
X112659033Y-119375941D02*
X112625699Y-119309275D01*
X112625699Y-119209275D01*
X112659033Y-119109275D01*
X112725699Y-119042608D01*
X112792366Y-119009275D01*
X112925699Y-118975941D01*
X113025699Y-118975941D01*
X113159033Y-119009275D01*
X113225699Y-119042608D01*
X113292366Y-119109275D01*
X113325699Y-119209275D01*
X113325699Y-119275941D01*
X113292366Y-119375941D01*
X113259033Y-119409275D01*
X113025699Y-119409275D01*
X113025699Y-119275941D01*
X113325699Y-119709275D02*
X112625699Y-119709275D01*
X113325699Y-120109275D01*
X112625699Y-120109275D01*
X113325699Y-120442608D02*
X112625699Y-120442608D01*
X112625699Y-120609275D01*
X112659033Y-120709275D01*
X112725699Y-120775941D01*
X112792366Y-120809275D01*
X112925699Y-120842608D01*
X113025699Y-120842608D01*
X113159033Y-120809275D01*
X113225699Y-120775941D01*
X113292366Y-120709275D01*
X113325699Y-120609275D01*
X113325699Y-120442608D01*
X94850366Y-120912441D02*
X94150366Y-120679108D01*
X94850366Y-120445775D01*
X94150366Y-120112441D02*
X94183699Y-120179108D01*
X94217033Y-120212441D01*
X94283699Y-120245775D01*
X94483699Y-120245775D01*
X94550366Y-120212441D01*
X94583699Y-120179108D01*
X94617033Y-120112441D01*
X94617033Y-120012441D01*
X94583699Y-119945775D01*
X94550366Y-119912441D01*
X94483699Y-119879108D01*
X94283699Y-119879108D01*
X94217033Y-119912441D01*
X94183699Y-119945775D01*
X94150366Y-120012441D01*
X94150366Y-120112441D01*
X94617033Y-119279108D02*
X94150366Y-119279108D01*
X94617033Y-119579108D02*
X94250366Y-119579108D01*
X94183699Y-119545775D01*
X94150366Y-119479108D01*
X94150366Y-119379108D01*
X94183699Y-119312441D01*
X94217033Y-119279108D01*
X94617033Y-119045775D02*
X94617033Y-118779108D01*
X94850366Y-118945775D02*
X94250366Y-118945775D01*
X94183699Y-118912441D01*
X94150366Y-118845775D01*
X94150366Y-118779108D01*
X94150366Y-117752608D02*
X94483699Y-117985941D01*
X94150366Y-118152608D02*
X94850366Y-118152608D01*
X94850366Y-117885941D01*
X94817033Y-117819275D01*
X94783699Y-117785941D01*
X94717033Y-117752608D01*
X94617033Y-117752608D01*
X94550366Y-117785941D01*
X94517033Y-117819275D01*
X94483699Y-117885941D01*
X94483699Y-118152608D01*
X94183699Y-117485941D02*
X94150366Y-117385941D01*
X94150366Y-117219275D01*
X94183699Y-117152608D01*
X94217033Y-117119275D01*
X94283699Y-117085941D01*
X94350366Y-117085941D01*
X94417033Y-117119275D01*
X94450366Y-117152608D01*
X94483699Y-117219275D01*
X94517033Y-117352608D01*
X94550366Y-117419275D01*
X94583699Y-117452608D01*
X94650366Y-117485941D01*
X94717033Y-117485941D01*
X94783699Y-117452608D01*
X94817033Y-117419275D01*
X94850366Y-117352608D01*
X94850366Y-117185941D01*
X94817033Y-117085941D01*
X94850366Y-116885941D02*
X94850366Y-116485941D01*
X94150366Y-116685941D02*
X94850366Y-116685941D01*
X94817033Y-115299108D02*
X94850366Y-115365775D01*
X94850366Y-115465775D01*
X94817033Y-115565775D01*
X94750366Y-115632441D01*
X94683699Y-115665775D01*
X94550366Y-115699108D01*
X94450366Y-115699108D01*
X94317033Y-115665775D01*
X94250366Y-115632441D01*
X94183699Y-115565775D01*
X94150366Y-115465775D01*
X94150366Y-115399108D01*
X94183699Y-115299108D01*
X94217033Y-115265775D01*
X94450366Y-115265775D01*
X94450366Y-115399108D01*
X94150366Y-114965775D02*
X94850366Y-114965775D01*
X94150366Y-114565775D01*
X94850366Y-114565775D01*
X94150366Y-114232441D02*
X94850366Y-114232441D01*
X94850366Y-114065775D01*
X94817033Y-113965775D01*
X94750366Y-113899108D01*
X94683699Y-113865775D01*
X94550366Y-113832441D01*
X94450366Y-113832441D01*
X94317033Y-113865775D01*
X94250366Y-113899108D01*
X94183699Y-113965775D01*
X94150366Y-114065775D01*
X94150366Y-114232441D01*
X94150366Y-112836108D02*
X94483699Y-113069441D01*
X94150366Y-113236108D02*
X94850366Y-113236108D01*
X94850366Y-112969441D01*
X94817033Y-112902775D01*
X94783699Y-112869441D01*
X94717033Y-112836108D01*
X94617033Y-112836108D01*
X94550366Y-112869441D01*
X94517033Y-112902775D01*
X94483699Y-112969441D01*
X94483699Y-113236108D01*
X94350366Y-112569441D02*
X94350366Y-112236108D01*
X94150366Y-112636108D02*
X94850366Y-112402775D01*
X94150366Y-112169441D01*
X94850366Y-112002775D02*
X94150366Y-111836108D01*
X94650366Y-111702775D01*
X94150366Y-111569441D01*
X94850366Y-111402775D01*
M02*
